HIERARCHY
ROOT Hips
{
	OFFSET 62.890800 8.863803 43.568401
	CHANNELS 6 Xposition Yposition Zposition Zrotation Xrotation Yrotation
	JOINT Chest
	{
		OFFSET -0.160400 1.630001 7.806301
		CHANNELS 6 Xposition Yposition Zposition Zrotation Xrotation Yrotation
		JOINT Chest2
		{
			OFFSET 0.000000 0.000000 3.197998
			CHANNELS 6 Xposition Yposition Zposition Zrotation Xrotation Yrotation
			JOINT Neck
			{
				OFFSET 0.000000 0.000001 7.440701
				CHANNELS 6 Xposition Yposition Zposition Zrotation Xrotation Yrotation
				JOINT Head
				{
					OFFSET 0.000000 0.000000 2.173901
					CHANNELS 6 Xposition Yposition Zposition Zrotation Xrotation Yrotation
					End Site
					{
						OFFSET 0.000000 0.000001 10.420303
					}
				}
			}
			JOINT LeftCollar
			{
				OFFSET 2.426399 -1.880099 4.759399
				CHANNELS 6 Xposition Yposition Zposition Zrotation Xrotation Yrotation
				JOINT LeftShoulder
				{
					OFFSET 4.420197 0.000000 0.000000
					CHANNELS 6 Xposition Yposition Zposition Zrotation Xrotation Yrotation
					JOINT LeftElbow
					{
						OFFSET 0.000000 -0.000001 -10.347099
						CHANNELS 6 Xposition Yposition Zposition Zrotation Xrotation Yrotation
						JOINT LeftWrist
						{
							OFFSET 0.000000 -0.000001 -12.496300
							CHANNELS 6 Xposition Yposition Zposition Zrotation Xrotation Yrotation
							End Site
							{
								OFFSET 0.000000 0.000000 -2.173901
							}
						}
					}
				}
			}
			JOINT RightCollar
			{
				OFFSET -2.781502 -1.903799 5.072601
				CHANNELS 6 Xposition Yposition Zposition Zrotation Xrotation Yrotation
				JOINT RightShoulder
				{
					OFFSET -4.012100 0.000000 0.000000
					CHANNELS 6 Xposition Yposition Zposition Zrotation Xrotation Yrotation
					JOINT RightElbow
					{
						OFFSET 0.000000 -0.000001 -10.346600
						CHANNELS 6 Xposition Yposition Zposition Zrotation Xrotation Yrotation
						JOINT RightWrist
						{
							OFFSET 0.000000 -0.000001 -12.562599
							CHANNELS 6 Xposition Yposition Zposition Zrotation Xrotation Yrotation
							End Site
							{
								OFFSET 0.000000 0.000000 -2.173901
							}
						}
					}
				}
			}
		}
	}
	JOINT LeftHip
	{
		OFFSET 2.047997 -0.047200 -2.693199
		CHANNELS 6 Xposition Yposition Zposition Zrotation Xrotation Yrotation
		JOINT LeftKnee
		{
			OFFSET 0.000000 -0.000001 -18.824400
			CHANNELS 6 Xposition Yposition Zposition Zrotation Xrotation Yrotation
			JOINT LeftAnkle
			{
				OFFSET 0.000000 -0.000002 -19.078199
				CHANNELS 6 Xposition Yposition Zposition Zrotation Xrotation Yrotation
				End Site
				{
					OFFSET 0.000000 -9.342100 0.000001
				}
			}
		}
	}
	JOINT RightHip
	{
		OFFSET -2.129898 -0.022300 -2.538300
		CHANNELS 6 Xposition Yposition Zposition Zrotation Xrotation Yrotation
		JOINT RightKnee
		{
			OFFSET 0.000000 -0.000001 -18.644600
			CHANNELS 6 Xposition Yposition Zposition Zrotation Xrotation Yrotation
			JOINT RightAnkle
			{
				OFFSET 0.000000 -0.000002 -18.801399
				CHANNELS 6 Xposition Yposition Zposition Zrotation Xrotation Yrotation
				End Site
				{
					OFFSET 0.000000 -8.914600 0.000001
				}
			}
		}
	}
}
MOTION
Frames: 7
Frame Time: 0.041667
25.380600 74.082100 33.827141 3549.214802 8.085102 361.894404 -0.160387 1.630001 7.806305 -24.491617 10.773431 -10.820916 0.000006 0.000001 3.198001 9.087146 -7.156193 0.365242 -0.000010 0.000005 7.440703 -31.720686 10.158674 1.270435 -0.000008 0.000005 2.173900 -2.649238 -1.506611 -1.789582 2.426406 -1.880106 4.759398 -173.937106 184.604304 -204.090328 4.420200 0.000002 -0.000001 4.351227 5.614352 -114.200032 0.000000 0.000010 -10.347084 1352.728363 -171.585021 184.410955 -0.000001 -0.000004 -12.496301 69.825598 0.192903 -10.083939 -2.781505 -1.903803 5.072609 -193.616329 -183.596646 162.724093 -4.012096 0.000004 0.000001 -7.584621 -11.202063 461.453208 -0.000000 0.000005 -10.346591 -270.117425 -152.434086 -279.870416 -0.000007 -0.000006 -12.562596 734.278066 519.590085 -935.553632 2.048005 -0.047198 -2.693196 736.389961 -21.963634 15.389480 0.000000 0.000006 -18.824390 -437.514461 44.188097 87.516723 0.000001 -0.000005 -19.078201 -332.199474 -14.901635 20.588688 -2.129889 -0.022297 -2.538299 -793.848954 -35.602675 -51.134109 0.000007 0.000005 -18.644596 300.013491 -233.145010 85.638244 0.000001 0.000000 -18.801399 143.888358 205.414702 140.417980
25.368397 74.131195 33.874237 3549.568224 8.046446 361.834298 -0.160395 1.630001 7.806304 -24.293212 10.838864 -10.733125 0.000010 -0.000000 3.198002 9.031831 -7.242009 0.365343 -0.000000 0.000013 7.440694 -31.171850 10.090925 1.401507 -0.000009 0.000001 2.173917 -2.477201 -1.627519 -1.537832 2.426399 -1.880093 4.759398 -174.005776 184.590056 -204.063854 4.420185 0.000007 0.000001 2.792529 2.563504 -113.733687 -0.000003 0.000003 -10.347097 1349.149672 -171.559421 184.294582 0.000007 0.000010 -12.496286 68.772512 -0.103574 -10.247773 -2.781504 -1.903790 5.072608 -193.436763 -183.666355 162.714121 -4.012105 -0.000003 -0.000010 -8.291776 -12.352377 461.192732 0.000000 -0.000000 -10.346607 -269.593031 -151.973048 -279.658407 -0.000010 -0.000001 -12.562601 733.941529 519.630301 -935.465550 2.047995 -0.047196 -2.693196 736.141779 -21.902006 15.362166 -0.000000 0.000002 -18.824398 -437.550661 44.205753 87.376103 -0.000007 -0.000005 -19.078196 -332.230018 -14.839621 20.628064 -2.129896 -0.022300 -2.538299 -794.253793 -35.410344 -51.008095 0.000002 0.000008 -18.644596 299.866615 -233.447943 85.811088 0.000003 -0.000006 -18.801403 144.426986 205.758083 140.250298
25.359196 74.184700 33.936333 3549.943283 8.023941 361.773154 -0.160398 1.630007 7.806307 -24.141746 10.897835 -10.631268 0.000003 0.000000 3.198003 9.048050 -7.310036 0.367520 -0.000004 0.000005 7.440705 -30.528166 9.965440 1.540403 -0.000008 -0.000000 2.173917 -2.251272 -1.716934 -1.293450 2.426403 -1.880099 4.759398 -174.104227 184.603949 -204.131596 4.420187 -0.000001 0.000002 0.944053 -1.306375 -113.143832 0.000005 0.000001 -10.347091 1344.506236 -171.512511 184.133717 0.000001 -0.000009 -12.496290 67.632233 -0.433708 -10.537689 -2.781505 -1.903799 5.072609 -193.041596 -183.821482 162.913440 -4.012095 -0.000004 -0.000005 -9.189591 -13.774040 460.682927 0.000000 0.000003 -10.346603 -268.904575 -151.607141 -279.446480 -0.000008 -0.000002 -12.562597 733.780500 519.688276 -935.439650 2.047996 -0.047194 -2.693200 736.071619 -21.821553 15.401879 -0.000006 0.000003 -18.824400 -437.726934 44.226595 87.176300 0.000003 -0.000001 -19.078199 -332.298730 -14.805705 20.692439 -2.129903 -0.022287 -2.538297 -794.219806 -35.464791 -50.631523 0.000003 0.000005 -18.644602 299.046172 -234.132437 86.271471 -0.000006 -0.000003 -18.801399 145.184331 205.901134 140.305514
25.354591 74.244598 34.015839 3550.340855 8.029569 361.738812 -0.160398 1.630002 7.806305 -23.873950 10.920681 -10.559272 -0.000002 0.000005 3.198006 9.023222 -7.363721 0.365255 0.000001 -0.000005 7.440695 -29.827125 9.802269 1.666698 -0.000011 0.000005 2.173906 -1.994051 -1.825194 -1.081115 2.426398 -1.880111 4.759396 -172.339675 182.723133 -203.815386 4.420195 0.000002 -0.000005 -2.121136 -8.212390 -112.950094 0.000001 -0.000002 -10.347086 1339.047986 -171.533699 183.859198 0.000000 -0.000004 -12.496300 66.361613 -0.820545 -10.802061 -2.781496 -1.903806 5.072601 -192.609832 -183.937472 163.106311 -4.012094 0.000003 -0.000002 -10.123250 -15.144027 460.176072 0.000008 0.000004 -10.346598 -268.241309 -151.434378 -279.175404 -0.000000 -0.000007 -12.562601 733.933770 519.751059 -935.539207 2.047993 -0.047192 -2.693200 736.028507 -21.738639 15.376557 -0.000009 -0.000002 -18.824390 -437.883236 44.109649 86.864160 0.000010 -0.000002 -19.078203 -332.296353 -14.861600 20.860561 -2.129900 -0.022293 -2.538299 -794.174290 -35.494512 -50.252499 0.000005 -0.000000 -18.644598 298.058090 -234.779338 86.910681 0.000007 -0.000005 -18.801399 145.869427 205.934028 140.363748
25.352894 74.311699 34.114235 3550.801373 8.041874 361.726545 -0.160402 1.630002 7.806301 -23.674192 10.966746 -10.517622 0.000003 -0.000003 3.198000 9.092611 -7.397587 0.368606 -0.000002 0.000006 7.440700 -28.912737 9.545264 1.733395 0.000000 0.000005 2.173904 -1.815439 -1.902064 -0.922520 2.426403 -1.880093 4.759398 -172.541958 182.689433 -203.842242 4.420200 0.000005 -0.000008 -3.437425 -11.371842 -112.413002 -0.000012 0.000006 -10.347092 1334.858075 -171.535570 183.624090 -0.000005 0.000007 -12.496299 64.929110 -1.275678 -11.037585 -2.781501 -1.903797 5.072607 -192.176525 -184.080743 163.344698 -4.012101 -0.000001 0.000005 -10.749371 -16.291707 459.730252 0.000004 -0.000000 -10.346601 -267.560530 -151.673995 -278.493723 -0.000013 -0.000005 -12.562596 734.730607 519.736797 -935.853505 2.048007 -0.047202 -2.693199 736.029982 -21.644058 15.301606 -0.000002 0.000001 -18.824404 -438.088306 43.764888 86.481403 0.000009 0.000001 -19.078196 -332.160678 -14.971481 21.176834 -2.129892 -0.022297 -2.538298 -794.082492 -35.514730 -49.803014 0.000005 -0.000000 -18.644606 296.768168 -235.564373 87.802355 0.000002 -0.000008 -18.801397 146.651033 205.724765 140.640275
25.352795 74.390999 34.234539 3551.414233 8.086736 361.739359 -0.160404 1.629998 7.806312 -23.506941 10.931110 -10.497422 0.000003 0.000005 3.198000 9.152198 -7.369795 0.374761 -0.000001 0.000004 7.440705 -27.949206 9.326238 1.785246 0.000005 0.000003 2.173919 -1.608900 -2.068800 -0.808692 2.426397 -1.880101 4.759399 -172.871746 182.518200 -203.875724 4.420198 0.000004 -0.000004 -3.970056 -13.385700 -111.706371 0.000005 -0.000007 -10.347097 1331.784709 -171.502690 183.443882 0.000001 -0.000006 -12.496301 63.423511 -1.810312 -11.184846 -2.781500 -1.903801 5.072611 -191.569963 -184.310824 163.579069 -4.012102 0.000000 -0.000004 -11.033325 -17.332556 459.321971 0.000004 0.000003 -10.346600 -266.693424 -152.369158 -277.212517 -0.000003 -0.000006 -12.562599 736.512849 519.646475 -936.480024 2.047992 -0.047200 -2.693189 736.210245 -21.553564 15.199889 -0.000000 -0.000008 -18.824400 -438.489320 43.510412 86.099179 0.000010 -0.000001 -19.078196 -332.139696 -15.147898 21.296113 -2.129901 -0.022301 -2.538294 -793.683664 -35.717808 -49.109019 0.000000 -0.000003 -18.644604 294.733099 -236.395770 89.074478 -0.000002 0.000002 -18.801399 147.440411 205.357656 141.105220
25.352505 74.483093 34.378639 3552.144899 8.158091 361.777498 -0.160400 1.630005 7.806304 -23.364390 10.831430 -10.460529 0.000002 0.000003 3.197999 9.222374 -7.312653 0.375940 0.000005 -0.000009 7.440691 -27.338136 9.173030 1.903729 -0.000001 0.000007 2.173899 -1.289027 -2.277726 -0.802926 2.426403 -1.880113 4.759388 -173.301611 182.245430 -203.914820 4.420197 0.000003 -0.000002 -3.873005 -14.362020 -110.767165 -0.000001 -0.000003 -10.347086 1329.652925 -171.372301 183.305926 0.000001 0.000010 -12.496296 61.753106 -2.453669 -11.286959 -2.781493 -1.903815 5.072599 -191.089418 -184.487644 163.550901 -4.012095 -0.000005 0.000001 -11.027509 -18.136206 459.200940 -0.000001 0.000004 -10.346588 -266.031032 -153.354604 -275.751047 0.000001 -0.000004 -12.562601 739.035703 519.531946 -937.328716 2.047993 -0.047192 -2.693197 736.316522 -21.456286 15.010083 0.000001 -0.000011 -18.824400 -438.753239 43.136859 85.572770 -0.000000 -0.000002 -19.078197 -332.012709 -15.362193 21.447405 -2.129899 -0.022299 -2.538301 -793.514111 -35.788084 -48.486997 0.000011 0.000003 -18.644606 292.669016 -237.107121 90.497794 0.000002 -0.000003 -18.801397 148.173769 204.857741 141.712396
